<svg version="1" xmlns="http://www.w3.org/2000/svg" width="46" height="46" viewBox="0 0 512.000000 512.000000"><path d="M272 3.3c-29.8 12.7-51 33.9-69.8 69.8-6.9 13.2-13.4 28.8-22.8 54.9-10.1 28-13.4 33.9-19.2 34-5.8 0-8.5-5-7.7-14.7.4-5.5 4.7-20.8 7.1-25.5 1.7-3.2.4-4.4-2.2-2-13.5 12.4-37.3 47.8-50.9 75.7-22.2 45.7-33 89-33 132.5 0 22 2.6 38.1 9.2 58 19.5 58.5 67.3 103.8 126.5 119.8 24.3 6.6 57.5 7.7 81.8 2.7 1.4-.2 3.9-.7 5.5-1.1 18.6-3.7 45-15.3 63-27.8 3.3-2.2 6.5-4.6 7.1-5.1.6-.6 3.6-3 6.5-5.5 26-21.6 46.7-52.6 57.2-85.5 2.9-9.2 6.3-24.4 7.2-32.5.3-3 .8-6.9 1-8.5.6-4 .6-41.2 0-45-.2-1.7-.7-5.7-1-9-4.1-38.3-18.3-84.6-37-121-12.7-24.6-14.8-26.9-13.9-15.2 1 11.7-1.7 17.2-8.9 18.4-6.1 1-10.8-1.2-13.5-6.4-1.2-2.1-4-13.3-4.7-18.3-1.7-12.7-5.4-25.8-10.3-36.3-2.5-5.3-4.8-9.7-5.2-9.7-.4 0-1.2-1-1.7-2.3-2.9-6-23.1-24.6-25.4-23.2-.4.3-.3 1.8.2 3.3 1.7 4.2 2.3 9 2.3 17.7 0 9.5-1.5 14.5-5.5 18.5-12.8 12.7-35.3-8.2-43.5-40.5-2.6-10.4-3.6-26.5-2.1-35 2.6-14.4 5.8-23.5 11.5-32.8 2.1-3.4 2.2-5.8.4-5.7-.4.1-4.1 1.5-8.2 3.3zM269.5 242c42 6.7 72.5 44.2 71.1 87.5-1.1 32-18.7 59.8-47 74-12 6-22.4 8.6-35.1 8.8-12.2.1-18.5-.7-28.2-3.9-26.4-8.6-45.9-28.2-54.8-54.9-2.9-8.7-3.8-14.5-4-25.9-.3-14.5 2.3-26.2 8.8-39.1 12.6-25.2 35-41.8 63.2-46.8 4.9-.9 19.8-.7 26 .3z" style="fill: #f04e23;"/></svg>